<?xml version="1.0" standalone="no"?>
<!DOCTYPE svg PUBLIC "-//W3C//DTD SVG 20010904//EN"
 "http://www.w3.org/TR/2001/REC-SVG-20010904/DTD/svg10.dtd">
<svg version="1.0" xmlns="http://www.w3.org/2000/svg"
 width="86.000000pt" height="89.000000pt" viewBox="0 0 86.000000 89.000000"
 preserveAspectRatio="xMidYMid meet">

<g transform="translate(0.000000,89.000000) scale(0.100000,-0.100000)"
fill="#000000" stroke="none">
<path d="M0 445 c0 -389 2 -445 15 -445 13 0 15 53 15 420 l0 420 415 0 415 0
0 25 0 25 -430 0 -430 0 0 -445z"/>
<path d="M70 415 l0 -385 380 0 380 0 0 385 0 385 -380 0 -380 0 0 -385z m698
3 l2 -318 -320 0 -320 0 0 315 0 315 168 3 c92 1 235 3 317 2 l150 0 3 -317z"/>
<path d="M182 688 c-9 -9 -12 -84 -12 -274 0 -221 2 -264 15 -274 12 -10 73
-11 273 -5 141 4 260 9 265 12 13 8 9 527 -5 541 -17 17 -519 17 -536 0z m278
-128 c0 -45 3 -52 27 -61 22 -8 30 -6 50 12 12 13 23 18 23 12 0 -5 -9 -18
-19 -27 -16 -15 -18 -22 -9 -42 10 -21 18 -24 60 -24 26 0 48 -4 48 -10 0 -5
-22 -10 -48 -10 -43 0 -50 -3 -61 -26 -10 -23 -9 -30 10 -50 12 -13 20 -26 17
-29 -2 -3 -15 6 -27 19 -19 20 -26 22 -47 12 -20 -9 -24 -18 -24 -58 0 -26 -4
-50 -10 -53 -6 -4 -10 15 -10 48 0 51 -2 55 -26 61 -19 5 -33 1 -48 -13 -33
-31 -44 -25 -13 7 24 25 26 31 14 55 -11 24 -17 27 -67 28 -61 1 -58 4 11 14
35 4 49 11 57 29 9 20 7 27 -14 47 -13 12 -22 25 -19 27 3 3 16 -5 29 -17 19
-18 27 -20 49 -12 24 9 27 16 27 61 0 27 5 50 10 50 6 0 10 -23 10 -50z"/>
<path d="M391 464 c-24 -30 -26 -43 -10 -77 32 -71 139 -47 139 30 0 70 -86
101 -129 47z m87 -16 c27 -27 7 -78 -30 -78 -27 0 -52 44 -38 69 12 23 49 28
68 9z"/>
<path d="M424 435 c-9 -23 3 -45 26 -45 25 0 37 25 20 45 -16 19 -39 19 -46 0z"/>
</g>
</svg>
